<svg width="114" height="128" viewBox="0 0 114 128" fill="none" xmlns="http://www.w3.org/2000/svg">
<mask id="mask0_1_491" style="mask-type:alpha" maskUnits="userSpaceOnUse" x="0" y="0" width="28" height="28">
<rect width="28" height="28" fill="#D9D9D9"/>
</mask>
<path d="M42.9232 126.86C30.529 123.716 20.4016 117.151 12.5411 107.166C4.68049 97.1802 0.750183 85.625 0.750183 72.5C0.750183 65.7596 1.92568 59.3149 4.27668 53.1659C6.62768 47.0169 9.91856 41.3751 14.1493 36.2405C15.1877 35.0771 16.4424 34.4762 17.9136 34.4377C19.3847 34.3992 20.7404 35.0001 21.9808 36.2405C23.0193 37.279 23.5577 38.5458 23.5961 40.0409C23.6346 41.5361 23.1346 42.9422 22.0961 44.2595C18.8077 48.1826 16.3029 52.5528 14.5817 57.3701C12.8606 62.1874 12 67.2307 12 72.5C12 82.8174 15.113 91.9929 21.339 100.027C27.565 108.06 35.5337 113.394 45.2452 116.029C46.4856 116.385 47.5049 117.082 48.303 118.12C49.101 119.159 49.5 120.298 49.5 121.538C49.5 123.413 48.8534 124.889 47.5601 125.966C46.2669 127.043 44.7212 127.341 42.9232 126.86ZM71.0767 127.005C69.2787 127.485 67.7331 127.168 66.4399 126.053C65.1466 124.937 64.5 123.442 64.5 121.567C64.5 120.404 64.899 119.303 65.697 118.264C66.4951 117.226 67.5144 116.505 68.7547 116.101C78.4182 113.149 86.375 107.712 92.625 99.7886C98.875 91.8654 102 82.7692 102 72.5C102 60 97.625 49.375 88.875 40.625C80.125 31.875 69.5 27.5 57 27.5H54.3459L60.5194 33.6733C61.6059 34.7598 62.1491 36.0771 62.1491 37.6252C62.1491 39.1732 61.6059 40.4904 60.5194 41.5769C59.4329 42.6634 58.1156 43.2067 56.5674 43.2067C55.0194 43.2067 53.7022 42.6634 52.6157 41.5769L37.659 26.6203C36.9571 25.9184 36.4619 25.178 36.1734 24.3991C35.8849 23.6202 35.7407 22.7789 35.7407 21.8752C35.7407 20.9713 35.8849 20.1299 36.1734 19.3511C36.4619 18.5723 36.9571 17.8319 37.659 17.1299L52.6157 2.17326C53.7022 1.08676 55.0194 0.543503 56.5674 0.543503C58.1156 0.543503 59.4329 1.08676 60.5194 2.17326C61.6059 3.25976 62.1491 4.57706 62.1491 6.12519C62.1491 7.67319 61.6059 8.99045 60.5194 10.0769L54.3459 16.2502H57C72.6922 16.2502 85.9902 21.7021 96.894 32.606C107.798 43.5098 113.25 56.8077 113.25 72.5C113.25 85.5 109.308 96.9999 101.423 107C93.5383 117 83.4229 123.668 71.0767 127.005Z" fill="#949494"/>
</svg>
