<svg width="24" height="24" viewBox="0 0 24 24" fill="none" xmlns="http://www.w3.org/2000/svg">
<mask id="mask0_815_618" style="mask-type:alpha" maskUnits="userSpaceOnUse" x="0" y="0" width="24" height="24">
<rect width="24" height="24" fill="#D9D9D9"/>
</mask>
<g mask="url(#mask0_815_618)">
<path d="M7.14808 16.8521L4.7827 15.5637C4.63783 15.4893 4.5561 15.3755 4.5375 15.2223C4.51892 15.0691 4.56348 14.9387 4.67118 14.831L4.90385 14.6079C4.9577 14.5541 5.02084 14.5162 5.09328 14.4944C5.16571 14.4727 5.23398 14.4701 5.29808 14.4868L7.46923 14.7964L11.4942 10.7714L4.68463 7.07137C4.49233 6.97009 4.38014 6.81143 4.34808 6.59542C4.31603 6.3794 4.37757 6.19383 4.5327 6.03869L4.725 5.84639C4.80962 5.76178 4.90673 5.70441 5.01635 5.67429C5.12595 5.64416 5.23973 5.64255 5.35768 5.66947L14.2885 7.94639L17.723 4.53297C17.9615 4.29452 18.2531 4.17529 18.598 4.17529C18.9429 4.17529 19.2345 4.29452 19.473 4.53297C19.7115 4.77143 19.8307 5.0647 19.8307 5.41277C19.8307 5.76084 19.7115 6.0541 19.473 6.29257L16.0634 9.72137L18.3307 18.6117C18.3576 18.7399 18.3551 18.864 18.323 18.9838C18.291 19.1037 18.2294 19.2092 18.1384 19.3002L18.0423 19.3963C17.8666 19.572 17.6599 19.6428 17.4221 19.6088C17.1843 19.5749 17.0064 19.4483 16.8885 19.229L13.2288 12.5156L9.22305 16.5213L9.52305 18.6713C9.53972 18.7624 9.53298 18.8483 9.50285 18.929C9.47272 19.0098 9.4256 19.0822 9.3615 19.1463L9.26535 19.2425C9.13075 19.3771 8.97243 19.4319 8.79038 19.4069C8.60833 19.3819 8.47178 19.2867 8.38075 19.1213L7.14808 16.8521Z" fill="black"/>
</g>
</svg>
