<svg viewBox="0 0 24 24" fill="none" xmlns="http://www.w3.org/2000/svg">
<g clip-path="url(#clip0_300_872)">
<path d="M17.383 3.95386L19.5187 6.01816C19.7945 6.28572 19.9531 6.65171 19.9596 7.03596C19.9662 7.42022 19.8201 7.79139 19.5535 8.06816L9.35695 18.6235C9.29868 18.6843 9.22271 18.7251 9.13987 18.7402L4.79399 19.8214C4.57786 19.8761 4.1511 19.5442 4.09641 19.3281C4.08009 19.266 4.07898 19.2008 4.09318 19.1381L5.02873 14.7419C5.04544 14.6656 5.0823 14.598 5.25326 14.416L15.328 3.9888C15.5955 3.71292 15.9615 3.55434 16.3458 3.54781C16.73 3.54128 17.1012 3.68732 17.378 3.95395M14.797 5.70732L17.8572 8.66517L18.9748 7.50884C19.0923 7.38653 19.1566 7.22272 19.1537 7.05317C19.1508 6.88361 19.081 6.72208 18.9594 6.60384L16.8197 4.53861C16.6974 4.42114 16.5336 4.35684 16.3641 4.35972C16.1945 4.3626 16.033 4.43244 15.9147 4.55399L14.797 5.70732ZM17.2939 9.24691L14.2348 6.29004L5.99721 14.8125L9.06043 17.7743L17.2939 9.24691ZM8.25918 18.126L5.66685 15.6204L5.01868 18.6813L8.25918 18.126Z" fill="currentColor"/>
<path d="M17.383 3.95386L19.5187 6.01816C19.7945 6.28571 19.9531 6.65171 19.9596 7.03596C19.9662 7.42022 19.8201 7.79139 19.5535 8.06816L9.35695 18.6235C9.29868 18.6843 9.22271 18.7251 9.13987 18.7402L4.79399 19.8214C4.57786 19.8761 4.1511 19.5442 4.09641 19.3281C4.08009 19.266 4.07898 19.2008 4.09318 19.1381L5.02873 14.7419C5.04544 14.6656 5.0823 14.598 5.25326 14.416L15.328 3.9888C15.5955 3.71292 15.9615 3.55434 16.3458 3.54781C16.73 3.54128 17.1012 3.68732 17.378 3.95395M14.797 5.70732L17.8572 8.66517L18.9748 7.50884C19.0923 7.38653 19.1566 7.22272 19.1537 7.05317C19.1508 6.88361 19.081 6.72208 18.9594 6.60384L16.8197 4.53861C16.6974 4.42114 16.5336 4.35684 16.3641 4.35972C16.1945 4.3626 16.033 4.43244 15.9147 4.55399L14.797 5.70732ZM17.2939 9.24691L14.2348 6.29004L5.99721 14.8125L9.06043 17.7743L17.2939 9.24691ZM8.25918 18.126L5.66685 15.6204L5.01868 18.6813L8.25918 18.126Z" stroke="currentColor" stroke-width="0.600087"/>
</g>
<defs>
<clipPath id="clip0_300_872">
<rect width="24" height="24" fill="white"/>
</clipPath>
</defs>
</svg>
