<svg viewBox="0 0 24 24" fill="none" xmlns="http://www.w3.org/2000/svg">
<path d="M20 7V21C20 21.2652 19.8946 21.5196 19.7071 21.7071C19.5196 21.8946 19.2652 22 19 22H5C4.73478 22 4.48043 21.8946 4.29289 21.7071C4.10536 21.5196 4 21.2652 4 21V3C4 2.73478 4.10536 2.48043 4.29289 2.29289C4.48043 2.10536 4.73478 2 5 2H15M20 7H15V2M20 7L15 2" stroke="currentColor" stroke-width="2" stroke-linecap="round" stroke-linejoin="bevel"/>
<path d="M12 14C13.1046 14 14 13.1046 14 12C14 10.8954 13.1046 10 12 10C10.8954 10 10 10.8954 10 12C10 13.1046 10.8954 14 12 14Z" stroke="currentColor" stroke-width="2" stroke-linecap="round" stroke-linejoin="round"/>
<path d="M16 18C16 16.9391 15.5786 15.9217 14.8284 15.1716C14.0783 14.4214 13.0609 14 12 14C10.9391 14 9.92172 14.4214 9.17157 15.1716C8.42143 15.9217 8 16.9391 8 18" stroke="currentColor" stroke-width="2" stroke-linecap="square" stroke-linejoin="round"/>
</svg>
